<svg width="80" height="80" viewBox="0 0 80 80" fill="none" xmlns="http://www.w3.org/2000/svg">
<path fill-rule="evenodd" clip-rule="evenodd" d="M32.9818 14.8248C33.805 13.1782 33.1376 11.1759 31.491 10.3526C29.8444 9.52934 27.8422 10.1968 27.0189 11.8434L17.9402 30.0007H10.0003C8.15938 30.0007 6.66699 31.4931 6.66699 33.3341C6.66699 35.175 8.15938 36.6674 10.0003 36.6674H10.601L15.0389 58.8573C15.3254 60.2898 15.5752 61.539 15.8611 62.5659C16.1657 63.6596 16.5678 64.7246 17.2659 65.7246C18.3207 67.2357 19.7725 68.4259 21.4611 69.1639C22.5785 69.6522 23.7017 69.8377 24.834 69.9218C25.8969 70.0008 27.1707 70.0008 28.6315 70.0007H51.3687C52.8296 70.0008 54.1037 70.0008 55.1667 69.9218C56.2989 69.8377 57.4221 69.6522 58.5396 69.1639C60.2282 68.4259 61.68 67.2357 62.7348 65.7246C63.4328 64.7246 63.8349 63.6596 64.1395 62.5659C64.4254 61.5391 64.6752 60.29 64.9616 58.8575L69.3997 36.6674H70.0003C71.8413 36.6674 73.3337 35.175 73.3337 33.3341C73.3337 31.4931 71.8413 30.0007 70.0003 30.0007H62.0604L52.9818 11.8434C52.1585 10.1968 50.1562 9.52934 48.5096 10.3526C46.863 11.1759 46.1956 13.1782 47.0189 14.8248L54.6069 30.0007H25.3938L32.9818 14.8248ZM30.0003 40C31.8413 40 33.3337 41.4924 33.3337 43.3333V53.3333C33.3337 55.1743 31.8413 56.6667 30.0003 56.6667C28.1594 56.6667 26.667 55.1743 26.667 53.3333V43.3333C26.667 41.4924 28.1594 40 30.0003 40ZM40.0003 40C41.8413 40 43.3337 41.4924 43.3337 43.3333V53.3333C43.3337 55.1743 41.8413 56.6667 40.0003 56.6667C38.1594 56.6667 36.667 55.1743 36.667 53.3333V43.3333C36.667 41.4924 38.1594 40 40.0003 40ZM53.3337 43.3333C53.3337 41.4924 51.8413 40 50.0003 40C48.1594 40 46.667 41.4924 46.667 43.3333V53.3333C46.667 55.1743 48.1594 56.6667 50.0003 56.6667C51.8413 56.6667 53.3337 55.1743 53.3337 53.3333V43.3333Z" fill="#949CA3"/>
</svg>
