<svg width="24" height="24" viewBox="0 0 24 24" fill="none" xmlns="http://www.w3.org/2000/svg">
<path fill-rule="evenodd" clip-rule="evenodd" d="M17.8717 2H11.5181C9.12865 2 7.55238 3.77633 7.41806 6.03871C7.40773 6.2128 7.55012 6.35464 7.72452 6.35464H12.6013C15.617 6.35464 17.6433 8.47353 17.6433 11.6261V16.2755C17.6433 16.4499 17.7852 16.5922 17.9593 16.5822C20.3209 16.4461 22 14.7809 22 12.2977V6.31148C22 3.73259 20.3411 2 17.8717 2Z" fill="#5D6266"/>
<path fill-rule="evenodd" clip-rule="evenodd" d="M7.77417 10.2128C7.77417 10.3923 7.98447 10.4895 8.12116 10.3731L10.7386 8.14467C10.8876 8.01775 10.7978 7.77386 10.6021 7.77386H8.08995C7.91556 7.77386 7.77417 7.91523 7.77417 8.08964V10.2128Z" fill="#5D6266"/>
<path fill-rule="evenodd" clip-rule="evenodd" d="M7.91415 12.6091C7.83922 12.6732 7.79789 12.7686 7.80641 12.8668C7.83615 13.2091 7.89897 13.5269 7.99485 13.8229C8.05873 14.02 8.29825 14.0787 8.45912 13.9479C10.2697 12.4767 13.7344 9.69373 14.7505 8.87791C14.9022 8.75613 14.9066 8.52836 14.748 8.41577C14.4152 8.17958 14.0356 8.00728 13.6087 7.90253C13.5142 7.87935 13.415 7.90576 13.3411 7.96897L7.91415 12.6091Z" fill="#5D6266"/>
<path fill-rule="evenodd" clip-rule="evenodd" d="M9.3866 15.2054C9.23279 15.331 9.23145 15.5665 9.39831 15.6741C9.77075 15.9142 10.198 16.078 10.6752 16.1607C10.6844 16.1623 10.6938 16.1594 10.7005 16.1527L16.1011 11.4942C16.1737 11.4315 16.2146 11.3391 16.2082 11.2433C16.1855 10.9018 16.1301 10.5813 16.0421 10.2839C15.9825 10.0827 15.7381 10.022 15.5755 10.1548L9.3866 15.2054Z" fill="#5D6266"/>
<path fill-rule="evenodd" clip-rule="evenodd" d="M16.2266 13.8978C16.2266 13.7174 16.0146 13.6206 15.8782 13.7387L13.4324 15.8567C13.2852 15.9843 13.3754 16.2264 13.5703 16.2264H15.9108C16.0852 16.2264 16.2266 16.0851 16.2266 15.9106V13.8978Z" fill="#5D6266"/>
<path fill-rule="evenodd" clip-rule="evenodd" d="M6.35569 12.3729V7.72356C6.35569 7.54916 6.21373 7.40677 6.03962 7.41681C3.67782 7.55296 2 9.21865 2 11.7014V17.6875C2 20.2675 3.65891 22.0001 6.12727 22.0001H12.4798C14.8704 22.0001 16.4476 20.2229 16.5819 17.9592C16.5922 17.7851 16.4498 17.6433 16.2755 17.6433H11.3956C8.38091 17.6433 6.35569 15.5255 6.35569 12.3729Z" fill="#5D6266"/>
</svg>
