<svg width="24" height="24" viewBox="0 0 24 24" fill="none" xmlns="http://www.w3.org/2000/svg">
<path fill-rule="evenodd" clip-rule="evenodd" d="M10.5263 14.4468C10.2402 14.7664 10.2636 15.26 10.5774 15.5505C10.7251 15.6868 10.9103 15.7538 11.0949 15.7538C11.3041 15.7538 11.5128 15.6672 11.6646 15.4986L13.3444 13.6249V20.6875C13.3441 20.8598 13.2063 20.9999 13.0366 21H6.46763C3.79594 21 2.0002 19.0005 2 16.025V12.7817C2.0002 12.6096 2.13811 12.4694 2.30779 12.4693H12.2979L10.5263 14.4468ZM6.10037 15.8417C5.67575 15.8417 5.33038 16.1913 5.33038 16.6224C5.33049 17.0533 5.67582 17.403 6.10037 17.403H7.85842C8.28297 17.403 8.6283 17.0533 8.62841 16.6224C8.62841 16.1913 8.28304 15.8417 7.85842 15.8417H6.10037Z" fill="#5D6266"/>
<path d="M21.6933 12.4703C21.863 12.4706 22 12.6105 22 12.7828V16.025C21.9999 18.9996 20.2009 20.9989 17.523 20.9989H15.19C15.0202 20.9989 14.8824 20.8589 14.8823 20.6865V13.6238L16.5621 15.4986C16.8492 15.8182 17.3354 15.8399 17.6492 15.5494C17.963 15.2599 17.9865 14.7664 17.7003 14.4468L15.9287 12.4703H21.6933Z" fill="#5D6266"/>
<path d="M13.0366 4C13.2065 4.00007 13.3444 4.13998 13.3444 4.31246V7.65103C12.7546 7.17102 12.0466 6.8704 11.2712 6.8704C10.1718 6.87045 9.27842 7.77831 9.27842 8.8924C9.27844 9.65038 9.60296 10.3416 10.1496 10.908H2.30779C2.13799 10.9079 2 10.768 2 10.5956V8.97502C2 5.99919 3.7958 4 6.46763 4H13.0366Z" fill="#5D6266"/>
<path d="M17.523 4C20.201 4 22 5.99919 22 8.97502V10.5956C22 10.7681 21.8622 10.908 21.6922 10.908H18.0791C18.6257 10.3416 18.9503 9.65038 18.9503 8.8924C18.9503 7.7784 18.0558 6.87058 16.9575 6.8704C16.1811 6.8704 15.472 7.17107 14.8823 7.65209V4.31246C14.8823 4.13994 15.0201 4 15.19 4H17.523Z" fill="#5D6266"/>
<path d="M11.2712 8.43271C12.345 8.4328 13.2314 9.45738 13.3339 10.765C11.9257 10.5474 10.8163 9.76495 10.8163 8.8924C10.8165 8.63849 11.0211 8.43271 11.2712 8.43271Z" fill="#5D6266"/>
<path d="M16.9575 8.43165C17.2077 8.43171 17.4113 8.63944 17.4113 8.89346C17.4111 9.76588 16.3028 10.5474 14.8948 10.765C14.9975 9.45736 15.8837 8.43165 16.9575 8.43165Z" fill="#5D6266"/>
</svg>
