<svg width="40" height="40" viewBox="0 0 40 40" fill="none" xmlns="http://www.w3.org/2000/svg">
<g clip-path="url(#clip0_3001_15713)">
<path d="M7.13477 4.33771V4.26123H8.75181V6.94902C9.2107 6.63217 9.70237 6.46828 10.2268 6.46828C10.8059 6.46828 11.3303 6.61032 11.822 6.89439C12.3137 7.17847 12.6961 7.5718 12.9802 8.05254C13.2642 8.54421 13.4063 9.06866 13.4063 9.64774C13.4063 10.2268 13.2642 10.7513 12.9802 11.2429C12.6961 11.7346 12.3028 12.117 11.822 12.4011C11.3303 12.6852 10.8059 12.8272 10.2268 12.8272C9.8007 12.8272 9.37459 12.7616 8.94848 12.6196C8.52236 12.4885 8.13996 12.259 7.79032 11.9531V4.32679H7.13477V4.33771ZM9.38552 12.5103C9.63681 12.6524 9.92089 12.7179 10.2377 12.7179C10.8714 12.7179 11.3631 12.4448 11.7346 11.8876C12.1061 11.3413 12.2809 10.5874 12.2809 9.64774C12.2809 9.03588 12.1935 8.48958 12.0078 8.03069C11.8329 7.5718 11.5707 7.21124 11.2429 6.95995C10.9152 6.70865 10.5437 6.57754 10.1285 6.57754C9.89904 6.57754 9.65867 6.62124 9.41829 6.69772C9.17792 6.7742 8.94848 6.89439 8.75181 7.03643V11.8985C8.9157 12.1716 9.12329 12.3792 9.38552 12.5103Z" fill="#2A2C2E"/>
<path d="M23.4472 12.3793L23.4581 12.4558L22.748 12.5432L21.8411 12.6634V12.4121C21.4041 12.7071 20.9124 12.8601 20.3661 12.8601C19.4592 12.8601 18.7163 12.6743 18.1481 12.2919C17.58 11.9095 17.2959 11.3741 17.2959 10.6967C17.2959 10.2597 17.427 9.88821 17.6783 9.57136C17.9296 9.26543 18.2574 9.03599 18.6726 8.8721C19.0878 8.71913 19.5248 8.64265 19.9946 8.64265C20.3333 8.64265 20.6611 8.68636 20.978 8.76284C21.3057 8.83932 21.5898 8.95951 21.8302 9.12339V8.22746C21.8302 7.74672 21.6991 7.36431 21.4478 7.05839C21.1965 6.76338 20.8468 6.61042 20.4207 6.61042C19.9946 6.61042 19.6341 6.74153 19.3281 7.01468C19.0222 7.28783 18.8255 7.65931 18.7163 8.12913H18.3557V7.09116C18.607 6.89449 18.9239 6.74153 19.2844 6.6432C19.645 6.54486 20.0274 6.49023 20.4207 6.49023C20.8578 6.49023 21.262 6.57764 21.6226 6.75246C21.9831 6.92727 22.2672 7.1895 22.4748 7.5282C22.6824 7.86691 22.7917 8.2821 22.7917 8.75191V11.7347C22.8026 12.2045 23.0211 12.423 23.4472 12.3793ZM18.6944 11.7019C18.8692 12.0188 19.0987 12.2701 19.3937 12.4558C19.6887 12.6416 20.0165 12.729 20.3661 12.729C20.9342 12.729 21.4259 12.5651 21.8411 12.2482V9.19988C21.4259 8.93765 20.978 8.80654 20.5081 8.80654C20.1367 8.80654 19.7979 8.88302 19.4811 9.04691C19.1642 9.2108 18.9129 9.42932 18.7163 9.7134C18.5196 9.99747 18.4322 10.3253 18.4322 10.6749C18.4431 11.0464 18.5305 11.3851 18.6944 11.7019Z" fill="#2A2C2E"/>
<path d="M27.7192 6.92696V6.85048H29.3363V7.72455C29.8935 7.01437 30.6146 6.65381 31.4996 6.65381C31.8711 6.65381 32.1989 6.71936 32.483 6.85048V7.94307H32.1224C32.1224 7.61529 32.0568 7.34215 31.9148 7.1127C31.7728 6.89418 31.5652 6.77399 31.2702 6.77399C30.9424 6.77399 30.6037 6.87233 30.265 7.069C29.9263 7.26566 29.6094 7.54974 29.3254 7.91029V12.0185C29.3254 12.2916 29.3909 12.4774 29.522 12.5975C29.6531 12.7068 29.8061 12.7614 29.9918 12.7614V12.8379H27.7192V12.7614C27.905 12.7614 28.0579 12.7068 28.1891 12.5975C28.3202 12.4883 28.3857 12.2916 28.3857 12.0185V6.91603H27.7192V6.92696Z" fill="#2A2C2E"/>
<path d="M11.4941 22.8352C11.0789 23.0974 10.6309 23.2285 10.1502 23.2285C9.57108 23.2285 9.04664 23.0865 8.55497 22.8024C8.0633 22.5184 7.68089 22.125 7.39682 21.6443C7.11274 21.1526 6.9707 20.6282 6.9707 20.0491C6.9707 19.47 7.11274 18.9456 7.39682 18.4539C7.68089 17.9622 8.07423 17.5798 8.55497 17.2957C9.04664 17.0117 9.57108 16.8696 10.1502 16.8696C10.8713 16.8696 11.5159 17.0881 12.095 17.5361V18.5741H11.7344C11.6252 18.0824 11.4285 17.6891 11.1663 17.405C10.8931 17.1209 10.5653 16.9789 10.1502 16.9789C9.51645 16.9789 9.02479 17.252 8.6533 17.8093C8.28182 18.3556 8.107 19.1095 8.107 20.0491C8.107 20.6609 8.19441 21.2072 8.38015 21.6661C8.55497 22.125 8.81719 22.4856 9.14497 22.7369C9.47275 22.9882 9.84423 23.1193 10.2594 23.1193C10.6637 23.1193 11.057 23.01 11.4394 22.7915C11.8218 22.573 12.095 22.278 12.2589 21.9065H12.3791C12.1933 22.2561 11.9092 22.573 11.4941 22.8352Z" fill="#2A2C2E"/>
<path d="M18.9347 21.6554C19.1095 22.1143 19.3717 22.4748 19.6995 22.7261C20.0273 22.9774 20.3987 23.1085 20.8139 23.1085C21.2182 23.1085 21.6115 22.9993 21.9939 22.7808C22.3763 22.5622 22.6495 22.2672 22.8134 21.8958H22.9336C22.7697 22.2563 22.4747 22.5622 22.0595 22.8354C21.6443 23.0976 21.1963 23.2287 20.7156 23.2287C20.1365 23.2287 19.6121 23.0867 19.1204 22.8026C18.6287 22.5185 18.2463 22.1252 17.9622 21.6445C17.6782 21.1528 17.5361 20.6283 17.5361 20.0493C17.5361 19.4702 17.6563 18.9348 17.9076 18.4432C18.1589 17.9515 18.4976 17.5691 18.9456 17.285C19.3935 17.0009 19.8961 16.8589 20.4752 16.8589C21.0434 16.8589 21.535 16.99 21.9502 17.2413C22.3654 17.4926 22.6932 17.8422 22.9117 18.2683C23.1302 18.6945 23.2395 19.1752 23.2395 19.6887H18.6834L18.6724 20.0383C18.6724 20.6611 18.7598 21.1965 18.9347 21.6554ZM21.6989 17.6456C21.4476 17.1976 21.0434 16.9791 20.4643 16.9791C19.9071 16.9791 19.481 17.2085 19.186 17.6565C18.891 18.1044 18.7271 18.7491 18.6834 19.5795H22.1032C22.0813 18.7272 21.9502 18.0826 21.6989 17.6456Z" fill="#2A2C2E"/>
<path d="M28.79 14.9139V14.8374H30.4071V22.4091C30.4071 22.6823 30.4726 22.868 30.6038 22.9882C30.7349 23.0974 30.8878 23.1521 31.0736 23.1521V23.2286H28.801V23.1521C28.9867 23.1521 29.1397 23.0974 29.2708 22.9882C29.4019 22.8789 29.4675 22.6823 29.4675 22.4091V14.9139H28.79Z" fill="#2A2C2E"/>
<path d="M8.55497 32.614C8.0633 32.3299 7.68089 31.9365 7.39682 31.4558C7.11274 30.9641 6.9707 30.4397 6.9707 29.8606C6.9707 29.2815 7.11274 28.7571 7.39682 28.2654C7.68089 27.7737 8.07423 27.3913 8.55497 27.1073C9.04664 26.8232 9.57108 26.6812 10.1502 26.6812C10.7292 26.6812 11.2537 26.8232 11.7454 27.1073C12.237 27.3913 12.6194 27.7847 12.9035 28.2654C13.1876 28.7571 13.3296 29.2815 13.3296 29.8606C13.3296 30.4397 13.1876 30.9641 12.9035 31.4558C12.6194 31.9475 12.237 32.3299 11.7454 32.614C11.2537 32.898 10.7292 33.0401 10.1502 33.0401C9.57108 33.051 9.03571 32.909 8.55497 32.614ZM11.6361 32.1004C12.0076 31.5541 12.1824 30.8002 12.1824 29.8606C12.1824 28.921 11.9967 28.1671 11.6361 27.6208C11.2646 27.0745 10.7729 26.7904 10.1502 26.7904C9.51645 26.7904 9.02479 27.0636 8.6533 27.6208C8.28182 28.1671 8.107 28.921 8.107 29.8606C8.107 30.8002 8.29275 31.5541 8.6533 32.1004C9.02479 32.6467 9.51645 32.9308 10.1502 32.9308C10.7729 32.9308 11.2646 32.6577 11.6361 32.1004Z" fill="#2A2C2E"/>
<path d="M17.0771 27.0417V26.9652H18.6942V27.8393C19.2514 27.1291 19.9725 26.7686 20.8575 26.7686C21.4912 26.7686 22.0157 26.9543 22.42 27.3367C22.8242 27.7191 23.0209 28.2545 23.0209 28.9647V32.1441C23.0209 32.4173 23.0864 32.603 23.2175 32.7232C23.3487 32.8325 23.5016 32.8871 23.6874 32.8871V32.9636H21.4148V32.8871C21.6005 32.8871 21.7535 32.8325 21.8846 32.7232C22.0157 32.614 22.0812 32.4173 22.0812 32.1441V28.8008C22.0812 28.1889 21.9611 27.73 21.7098 27.3913C21.4585 27.0636 21.1088 26.8887 20.6609 26.8887C20.3331 26.8887 19.9944 26.9871 19.6557 27.1837C19.317 27.3804 19.0001 27.6645 18.716 28.025V32.1332C18.716 32.4064 18.7816 32.5921 18.9127 32.7123C19.0438 32.8215 19.1968 32.8762 19.3825 32.8762V32.9527H17.1099V32.8871C17.2957 32.8871 17.4486 32.8325 17.5797 32.7232C17.7109 32.614 17.7764 32.4173 17.7764 32.1441V27.0417H17.0771Z" fill="#2A2C2E"/>
<path d="M33.0185 32.5815L33.0294 32.658L32.3192 32.7454L31.4124 32.8656V32.6143C30.9754 32.9093 30.4837 33.0622 29.9374 33.0622C29.0305 33.0622 28.2876 32.8765 27.7194 32.4941C27.1513 32.1117 26.8672 31.5763 26.8672 30.8989C26.8672 30.4618 26.9983 30.0904 27.2496 29.7735C27.5009 29.4676 27.8287 29.2381 28.2439 29.0742C28.659 28.9213 29.0961 28.8448 29.5659 28.8448C29.9046 28.8448 30.2324 28.8885 30.5492 28.965C30.877 29.0415 31.1611 29.1617 31.4015 29.3255V28.4296C31.4015 27.9489 31.2704 27.5665 31.0191 27.2605C30.7678 26.9655 30.4181 26.8126 29.992 26.8126C29.5659 26.8126 29.2053 26.9437 28.8994 27.2168C28.5935 27.49 28.3968 27.8615 28.2876 28.3313H27.927V27.2933C28.1783 27.0966 28.4952 26.9437 28.8557 26.8453C29.2163 26.747 29.5987 26.6924 29.992 26.6924C30.4291 26.6924 30.8333 26.7798 31.1939 26.9546C31.5544 27.1294 31.8385 27.3916 32.0461 27.7304C32.2537 28.0691 32.363 28.4842 32.363 28.9541V31.9369C32.3739 32.4067 32.5815 32.6361 33.0185 32.5815ZM28.2657 31.9041C28.4405 32.2209 28.67 32.4722 28.965 32.658C29.26 32.8437 29.5878 32.9311 29.9374 32.9311C30.5055 32.9311 30.9972 32.7672 31.4124 32.4504V29.402C30.9972 29.1398 30.5492 29.0087 30.0794 29.0087C29.7079 29.0087 29.3692 29.0852 29.0524 29.2491C28.7355 29.413 28.4842 29.6315 28.2876 29.9155C28.0909 30.1996 28.0035 30.5274 28.0035 30.877C28.0144 31.2485 28.0909 31.5872 28.2657 31.9041Z" fill="#2A2C2E"/>
<path d="M36.5474 40H3.45261C1.55149 40 0 38.4485 0 36.5474V3.45261C0 1.55149 1.55149 0 3.45261 0H36.5474C38.4485 0 40 1.55149 40 3.45261V36.5474C40 38.4485 38.4485 40 36.5474 40ZM3.44168 0.426113C1.78093 0.426113 0.426113 1.78093 0.426113 3.44168V36.5365C0.426113 38.1972 1.78093 39.552 3.44168 39.552H36.5365C38.1972 39.552 39.552 38.1972 39.552 36.5365V3.44168C39.552 1.78093 38.1972 0.426113 36.5365 0.426113H3.44168Z" fill="#2A2C2E"/>
</g>
<defs>
<clipPath id="clip0_3001_15713">
<rect width="40" height="40" fill="white"/>
</clipPath>
</defs>
</svg>
